<svg width="38" height="38" viewBox="0 0 38 38" fill="none" xmlns="http://www.w3.org/2000/svg">
<path d="M19 0C8.51637 0 0 8.51638 0 19C0 29.4836 8.51637 38 19 38C29.4836 38 38 29.4836 38 19C38 8.51638 29.4836 0 19 0ZM19 1.65217C28.5907 1.65217 36.3478 9.40927 36.3478 19C36.3478 28.5907 28.5907 36.3478 19 36.3478C9.40927 36.3478 1.65217 28.5907 1.65217 19C1.65217 9.40927 9.40927 1.65217 19 1.65217ZM26.5074 9.94209C25.9423 9.94209 25.3074 10.073 24.5648 10.3406C23.4116 10.7561 9.84756 16.5153 8.30443 17.1703C7.42217 17.5454 5.77938 18.243 5.77938 19.9068C5.77938 21.0096 6.4256 21.7984 7.69777 22.2527C8.38177 22.4964 10.0063 22.9888 10.9489 23.2482C11.3487 23.3581 11.7736 23.4144 12.2106 23.4144C13.0656 23.4144 13.926 23.2014 14.6001 22.8255C14.5943 22.9643 14.5981 23.1046 14.6146 23.245C14.7162 24.1124 15.2511 24.9282 16.0442 25.428C16.5629 25.7551 20.8003 28.5943 21.4331 29.0453C22.322 29.6806 23.3046 30.0166 24.2728 30.0166C26.1232 30.0166 26.744 28.106 27.0431 27.1883C27.4767 25.8558 29.1007 15.02 29.2841 13.1093C29.4089 11.7999 28.8632 10.7217 27.824 10.2244C27.4349 10.0369 26.9906 9.94209 26.5074 9.94209ZM26.5074 11.5943C26.7346 11.5943 26.9374 11.6318 27.1092 11.7153C27.4999 11.9028 27.6987 12.3208 27.6384 12.9528C27.4385 15.037 25.8185 25.6161 25.4732 26.6768C25.1774 27.5838 24.8659 28.3645 24.2728 28.3645C23.6796 28.3645 23.0317 28.1566 22.3931 27.6997C21.7545 27.2437 17.5141 24.4 16.9251 24.0291C16.4088 23.7036 15.8624 22.8923 16.6315 22.1075C17.2651 21.4615 22.0713 16.7968 22.4818 16.3862C22.7875 16.0797 22.6446 15.7102 22.3447 15.7102C22.2414 15.7102 22.1178 15.7537 21.9897 15.8586C21.4875 16.2692 14.4853 20.9547 13.8789 21.3314C13.4774 21.5809 12.8558 21.7606 12.2106 21.7606C11.9355 21.7606 11.657 21.7276 11.3894 21.6541C10.4575 21.3972 8.88059 20.9188 8.25442 20.6957C7.6522 20.481 7.43317 20.2752 7.43317 19.9068C7.43317 19.383 8.17243 19.0215 8.95143 18.6902C9.77421 18.3408 24.0111 12.295 25.1247 11.8944C25.6401 11.7077 26.1117 11.5943 26.5074 11.5943Z" fill="white"/>
</svg>
